<svg width="33" height="33" viewBox="0 0 33 33" fill="none" xmlns="http://www.w3.org/2000/svg">
<rect x="0.808594" y="0.559082" width="32" height="32" rx="16" fill="#1D9BF0"/>
<path d="M9.2532 19.6614V13.7636H10.5913V19.6614H9.2532ZM6.97337 17.3815V16.0435H12.8711V17.3815H6.97337ZM18.2862 12.3318V21.0591H16.7053V13.8702H16.6541L14.6129 15.1741V13.7253L16.782 12.3318H18.2862ZM23.728 21.2253C23.0263 21.2253 22.424 21.0477 21.9212 20.6926C21.4212 20.3347 21.0362 19.819 20.7663 19.1457C20.4993 18.4696 20.3658 17.6557 20.3658 16.704C20.3686 15.7523 20.5036 14.9426 20.7706 14.275C21.0405 13.6045 21.4254 13.0932 21.9254 12.7409C22.4283 12.3886 23.0291 12.2125 23.728 12.2125C24.4268 12.2125 25.0277 12.3886 25.5305 12.7409C26.0334 13.0932 26.4183 13.6045 26.6854 14.275C26.9553 14.9454 27.0902 15.7551 27.0902 16.704C27.0902 17.6585 26.9553 18.4739 26.6854 19.15C26.4183 19.8233 26.0334 20.3375 25.5305 20.6926C25.0305 21.0477 24.4297 21.2253 23.728 21.2253ZM23.728 19.8915C24.2734 19.8915 24.7038 19.623 25.0192 19.0861C25.3374 18.5463 25.4964 17.7523 25.4964 16.704C25.4964 16.0108 25.424 15.4284 25.2791 14.9568C25.1342 14.4852 24.9297 14.1301 24.6655 13.8915C24.4013 13.65 24.0888 13.5293 23.728 13.5293C23.1854 13.5293 22.7564 13.7991 22.4411 14.3389C22.1257 14.8758 21.9666 15.6642 21.9638 16.704C21.9609 17.4 22.0305 17.9852 22.1726 18.4597C22.3175 18.9341 22.522 19.292 22.7862 19.5335C23.0504 19.7722 23.3643 19.8915 23.728 19.8915Z" fill="#FEFFFF"/>
</svg>
