<svg width="184" height="202" viewBox="0 0 184 202" fill="none" xmlns="http://www.w3.org/2000/svg">
<g filter="url(#filter0_d_1_582)">
<circle cx="83.4512" cy="72.918" r="58.5045" fill="#3C3C3C"/>
</g>
<g filter="url(#filter1_i_1_582)">
<path d="M143.091 72.9177C143.091 105.857 116.389 132.559 83.45 132.559C50.5109 132.559 23.8086 105.857 23.8086 72.9177C23.8086 39.9787 50.5109 13.2764 83.45 13.2764C116.389 13.2764 143.091 39.9787 143.091 72.9177ZM34.2686 72.9177C34.2686 100.08 56.2878 122.099 83.45 122.099C110.612 122.099 132.631 100.08 132.631 72.9177C132.631 45.7556 110.612 23.7364 83.45 23.7364C56.2878 23.7364 34.2686 45.7556 34.2686 72.9177Z" fill="#0525FF"/>
</g>
<path d="M53.7785 82.4764L60.9929 68.1967V68.0807H52.6189V65.513H64.1736V68.1387L56.9674 82.4764H53.7785ZM72.5352 82.7084C71.3038 82.7084 70.2105 82.5013 69.2552 82.0871C68.3054 81.673 67.5599 81.107 67.0188 80.3891C66.4832 79.6658 66.2181 78.8458 66.2236 77.9291C66.2181 77.2168 66.3727 76.5624 66.6875 75.9661C67.0022 75.3697 67.4274 74.8727 67.963 74.4751C68.5042 74.072 69.1061 73.8153 69.7687 73.7048V73.5889C68.8962 73.3956 68.1894 72.9511 67.6483 72.2553C67.1127 71.554 66.8476 70.7451 66.8531 69.8284C66.8476 68.9559 67.0906 68.1773 67.582 67.4926C68.0735 66.8079 68.7472 66.2695 69.6031 65.8774C70.459 65.4799 71.4363 65.2811 72.5352 65.2811C73.623 65.2811 74.5921 65.4799 75.4425 65.8774C76.2984 66.2695 76.9721 66.8079 77.4636 67.4926C77.9605 68.1773 78.209 68.9559 78.209 69.8284C78.209 70.7451 77.9357 71.554 77.389 72.2553C76.8479 72.9511 76.1493 73.3956 75.2934 73.5889V73.7048C75.9561 73.8153 76.5524 74.072 77.0825 74.4751C77.6182 74.8727 78.0434 75.3697 78.3581 75.9661C78.6784 76.5624 78.8385 77.2168 78.8385 77.9291C78.8385 78.8458 78.5679 79.6658 78.0268 80.3891C77.4856 81.107 76.7402 81.673 75.7904 82.0871C74.8462 82.5013 73.7611 82.7084 72.5352 82.7084ZM72.5352 80.3394C73.1702 80.3394 73.7224 80.2318 74.1918 80.0164C74.6612 79.7955 75.0256 79.4863 75.2851 79.0887C75.5447 78.6911 75.6772 78.2328 75.6827 77.7138C75.6772 77.1726 75.5364 76.695 75.2603 76.2808C74.9897 75.8611 74.617 75.5326 74.1421 75.2951C73.6727 75.0577 73.1371 74.939 72.5352 74.939C71.9278 74.939 71.3866 75.0577 70.9118 75.2951C70.4369 75.5326 70.0614 75.8611 69.7853 76.2808C69.5147 76.695 69.3822 77.1726 69.3877 77.7138C69.3822 78.2328 69.5092 78.6911 69.7687 79.0887C70.0282 79.4808 70.3927 79.7872 70.8621 80.0081C71.3369 80.229 71.8947 80.3394 72.5352 80.3394ZM72.5352 72.6115C73.0543 72.6115 73.5126 72.5066 73.9102 72.2967C74.3133 72.0869 74.6308 71.7942 74.8627 71.4187C75.0946 71.0432 75.2134 70.6098 75.2189 70.1183C75.2134 69.6324 75.0974 69.2072 74.871 68.8427C74.6446 68.4728 74.3298 68.1884 73.9267 67.9896C73.5236 67.7853 73.0598 67.6831 72.5352 67.6831C71.9996 67.6831 71.5275 67.7853 71.1188 67.9896C70.7157 68.1884 70.401 68.4728 70.1746 68.8427C69.9537 69.2072 69.846 69.6324 69.8515 70.1183C69.846 70.6098 69.9565 71.0432 70.1829 71.4187C70.4148 71.7887 70.7323 72.0814 71.1354 72.2967C71.544 72.5066 72.0106 72.6115 72.5352 72.6115ZM82.9406 82.6587C82.4381 82.6587 82.0074 82.482 81.6485 82.1286C81.2896 81.7752 81.1129 81.3444 81.1184 80.8364C81.1129 80.3394 81.2896 79.9143 81.6485 79.5608C82.0074 79.2074 82.4381 79.0307 82.9406 79.0307C83.4266 79.0307 83.849 79.2074 84.2079 79.5608C84.5724 79.9143 84.7574 80.3394 84.7629 80.8364C84.7574 81.1733 84.669 81.4797 84.4978 81.7558C84.3322 82.0319 84.1113 82.2528 83.8352 82.4185C83.5646 82.5786 83.2664 82.6587 82.9406 82.6587ZM92.6296 65.513V82.4764H89.5566V68.5031H89.4572L85.4897 71.0377V68.2215L89.7057 65.513H92.6296ZM106.007 79.2958V78.4012C106.007 77.7441 106.145 77.1395 106.421 76.5873C106.702 76.0351 107.111 75.5906 107.647 75.2537C108.182 74.9169 108.831 74.7485 109.593 74.7485C110.377 74.7485 111.034 74.9169 111.564 75.2537C112.094 75.585 112.495 76.0268 112.765 76.579C113.042 77.1312 113.18 77.7386 113.18 78.4012V79.2958C113.18 79.9529 113.042 80.5576 112.765 81.1098C112.489 81.662 112.083 82.1065 111.548 82.4433C111.018 82.7801 110.366 82.9486 109.593 82.9486C108.82 82.9486 108.166 82.7801 107.63 82.4433C107.094 82.1065 106.688 81.662 106.412 81.1098C106.142 80.5576 106.007 79.9529 106.007 79.2958ZM108.168 78.4012V79.2958C108.168 79.732 108.273 80.1324 108.483 80.4968C108.693 80.8613 109.063 81.0435 109.593 81.0435C110.129 81.0435 110.496 80.864 110.695 80.5051C110.899 80.1407 111.001 79.7376 111.001 79.2958V78.4012C111.001 77.9595 110.905 77.5564 110.711 77.1919C110.518 76.822 110.145 76.637 109.593 76.637C109.074 76.637 108.707 76.822 108.491 77.1919C108.276 77.5564 108.168 77.9595 108.168 78.4012ZM97.384 69.5882V68.6936C97.384 68.031 97.5248 67.4236 97.8064 66.8714C98.0881 66.3192 98.4967 65.8774 99.0323 65.5461C99.5679 65.2093 100.217 65.0409 100.979 65.0409C101.757 65.0409 102.412 65.2093 102.942 65.5461C103.477 65.8774 103.881 66.3192 104.151 66.8714C104.422 67.4236 104.557 68.031 104.557 68.6936V69.5882C104.557 70.2508 104.419 70.8583 104.143 71.4104C103.872 71.9571 103.469 72.3961 102.934 72.7274C102.398 73.0587 101.746 73.2244 100.979 73.2244C100.2 73.2244 99.5431 73.0587 99.0075 72.7274C98.4773 72.3961 98.0742 71.9544 97.7981 71.4022C97.522 70.85 97.384 70.2453 97.384 69.5882ZM99.5624 68.6936V69.5882C99.5624 70.03 99.6646 70.4331 99.8689 70.7975C100.079 71.1564 100.449 71.3359 100.979 71.3359C101.509 71.3359 101.873 71.1564 102.072 70.7975C102.276 70.4331 102.379 70.03 102.379 69.5882V68.6936C102.379 68.2519 102.282 67.8488 102.089 67.4843C101.895 67.1144 101.525 66.9294 100.979 66.9294C100.454 66.9294 100.087 67.1144 99.8772 67.4843C99.6673 67.8543 99.5624 68.2574 99.5624 68.6936ZM98.3283 82.4764L109.991 65.513H112.061L100.399 82.4764H98.3283Z" fill="white"/>
<path opacity="0.8" d="M62.5812 52.3181H60.9511L64.6138 42.1401H66.388L70.0507 52.3181H68.4206L65.5432 43.9888H65.4636L62.5812 52.3181ZM62.8545 48.3324H68.1423V49.6245H62.8545V48.3324ZM72.8872 42.1401V52.3181H71.4013V42.1401H72.8872ZM76.3723 42.1401V52.3181H74.8863V42.1401H76.3723ZM81.9347 44.6846V45.8773H77.765V44.6846H81.9347ZM78.8832 42.8557H80.3692V50.0768C80.3692 50.365 80.4123 50.582 80.4984 50.7278C80.5845 50.8703 80.6955 50.968 80.8314 51.021C80.9705 51.0707 81.1213 51.0956 81.2836 51.0956C81.4029 51.0956 81.5073 51.0873 81.5967 51.0707C81.6862 51.0541 81.7557 51.0409 81.8054 51.0309L82.0738 52.2585C81.9877 52.2916 81.8651 52.3247 81.7061 52.3579C81.547 52.3943 81.3482 52.4142 81.1097 52.4175C80.7187 52.4241 80.3543 52.3546 80.0163 52.2088C79.6784 52.063 79.4051 51.8377 79.1963 51.5329C78.9876 51.2281 78.8832 50.8454 78.8832 50.3849V42.8557ZM83.5784 52.3181V44.6846H85.0644V52.3181H83.5784ZM84.3288 43.5067C84.0704 43.5067 83.8484 43.4206 83.6629 43.2483C83.4807 43.0727 83.3896 42.864 83.3896 42.6221C83.3896 42.3769 83.4807 42.1682 83.6629 41.9959C83.8484 41.8203 84.0704 41.7325 84.3288 41.7325C84.5873 41.7325 84.8076 41.8203 84.9898 41.9959C85.1754 42.1682 85.2681 42.3769 85.2681 42.6221C85.2681 42.864 85.1754 43.0727 84.9898 43.2483C84.8076 43.4206 84.5873 43.5067 84.3288 43.5067ZM87.0635 52.3181V44.6846H88.4898V45.927H88.5842C88.7432 45.5062 89.0033 45.1782 89.3644 44.943C89.7256 44.7044 90.158 44.5852 90.6616 44.5852C91.1718 44.5852 91.5992 44.7044 91.9438 44.943C92.2916 45.1815 92.5484 45.5095 92.7141 45.927H92.7936C92.9758 45.5195 93.2657 45.1948 93.6633 44.9529C94.0609 44.7078 94.5347 44.5852 95.0846 44.5852C95.7771 44.5852 96.342 44.8022 96.7793 45.2362C97.22 45.6702 97.4403 46.3246 97.4403 47.1993V52.3181H95.9543V47.3384C95.9543 46.8216 95.8135 46.4472 95.5319 46.2153C95.2503 45.9833 94.914 45.8674 94.5231 45.8674C94.0393 45.8674 93.6633 46.0165 93.3949 46.3146C93.1266 46.6095 92.9924 46.9889 92.9924 47.4527V52.3181H91.5114V47.244C91.5114 46.8298 91.3822 46.4969 91.1237 46.2451C90.8653 45.9933 90.529 45.8674 90.1149 45.8674C89.8333 45.8674 89.5732 45.9419 89.3346 46.091C89.0994 46.2368 88.9089 46.4405 88.7631 46.7023C88.6206 46.964 88.5494 47.2672 88.5494 47.6118V52.3181H87.0635ZM102.722 52.4722C101.97 52.4722 101.322 52.3115 100.779 51.9901C100.239 51.6654 99.8212 51.2099 99.5264 50.6234C99.2348 50.0337 99.089 49.3429 99.089 48.551C99.089 47.7691 99.2348 47.08 99.5264 46.4836C99.8212 45.8872 100.232 45.4217 100.759 45.0871C101.289 44.7525 101.909 44.5852 102.618 44.5852C103.048 44.5852 103.466 44.6564 103.87 44.7989C104.274 44.9413 104.637 45.165 104.958 45.4698C105.28 45.7746 105.533 46.1705 105.719 46.6576C105.904 47.1413 105.997 47.7294 105.997 48.4218V48.9486H99.9289V47.8354H104.541C104.541 47.4444 104.461 47.0982 104.302 46.7967C104.143 46.4919 103.92 46.2517 103.631 46.0761C103.346 45.9005 103.012 45.8127 102.627 45.8127C102.21 45.8127 101.846 45.9154 101.534 46.1208C101.226 46.3229 100.987 46.588 100.818 46.916C100.653 47.2407 100.57 47.5935 100.57 47.9745V48.8443C100.57 49.3545 100.659 49.7885 100.838 50.1463C101.021 50.5042 101.274 50.7775 101.599 50.9663C101.923 51.1519 102.303 51.2446 102.737 51.2446C103.018 51.2446 103.275 51.2049 103.507 51.1254C103.739 51.0425 103.94 50.92 104.108 50.7576C104.277 50.5953 104.407 50.3948 104.496 50.1563L105.903 50.4097C105.79 50.8239 105.588 51.1867 105.296 51.4981C105.008 51.8062 104.645 52.0464 104.208 52.2187C103.774 52.3877 103.279 52.4722 102.722 52.4722Z" fill="white"/>
<defs>
<filter id="filter0_d_1_582" x="-17.0377" y="0.418737" width="200.978" height="200.978" filterUnits="userSpaceOnUse" color-interpolation-filters="sRGB">
<feFlood flood-opacity="0" result="BackgroundImageFix"/>
<feColorMatrix in="SourceAlpha" type="matrix" values="0 0 0 0 0 0 0 0 0 0 0 0 0 0 0 0 0 0 127 0" result="hardAlpha"/>
<feMorphology radius="13.9948" operator="erode" in="SourceAlpha" result="effect1_dropShadow_1_582"/>
<feOffset dy="27.9897"/>
<feGaussianBlur stdDeviation="27.9897"/>
<feColorMatrix type="matrix" values="0 0 0 0 0.0625882 0 0 0 0 0.0926346 0 0 0 0 0.15702 0 0 0 0.18 0"/>
<feBlend mode="normal" in2="BackgroundImageFix" result="effect1_dropShadow_1_582"/>
<feBlend mode="normal" in="SourceGraphic" in2="effect1_dropShadow_1_582" result="shape"/>
</filter>
<filter id="filter1_i_1_582" x="23.8086" y="13.2764" width="119.283" height="123.948" filterUnits="userSpaceOnUse" color-interpolation-filters="sRGB">
<feFlood flood-opacity="0" result="BackgroundImageFix"/>
<feBlend mode="normal" in="SourceGraphic" in2="BackgroundImageFix" result="shape"/>
<feColorMatrix in="SourceAlpha" type="matrix" values="0 0 0 0 0 0 0 0 0 0 0 0 0 0 0 0 0 0 127 0" result="hardAlpha"/>
<feOffset dy="11.6624"/>
<feGaussianBlur stdDeviation="2.33247"/>
<feComposite in2="hardAlpha" operator="arithmetic" k2="-1" k3="1"/>
<feColorMatrix type="matrix" values="0 0 0 0 0 0 0 0 0 0 0 0 0 0 0 0 0 0 0.25 0"/>
<feBlend mode="normal" in2="shape" result="effect1_innerShadow_1_582"/>
</filter>
</defs>
</svg>
