<svg width="139" height="176" viewBox="0 0 139 176" fill="none" xmlns="http://www.w3.org/2000/svg">
<rect x="0.496292" y="0.964065" width="137.389" height="174.19" rx="10.1246" fill="#242424"/>
<rect x="0.496292" y="0.964065" width="137.389" height="174.19" rx="10.1246" stroke="#787878" stroke-width="0.809967"/>
<path opacity="0.8" d="M14.7823 14.3689C14.7308 13.9119 14.5184 13.5578 14.145 13.3068C13.7717 13.0525 13.3018 12.9254 12.7353 12.9254C12.3298 12.9254 11.979 12.9898 11.6829 13.1185C11.3867 13.244 11.1566 13.4178 10.9925 13.6399C10.8316 13.8588 10.7511 14.1082 10.7511 14.3882C10.7511 14.6232 10.8058 14.8259 10.9152 14.9965C11.0279 15.1671 11.1743 15.3103 11.3546 15.4262C11.538 15.5388 11.7343 15.6338 11.9435 15.711C12.1528 15.785 12.3539 15.8462 12.547 15.8945L13.5126 16.1455C13.828 16.2228 14.1514 16.3274 14.483 16.4593C14.8145 16.5913 15.1218 16.7651 15.4051 16.9807C15.6883 17.1964 15.9168 17.4635 16.0906 17.7821C16.2676 18.1008 16.3561 18.4821 16.3561 18.9263C16.3561 19.4863 16.2113 19.9836 15.9216 20.4181C15.6352 20.8526 15.2184 21.1953 14.6712 21.4464C14.1273 21.6974 13.4691 21.823 12.6967 21.823C11.9564 21.823 11.3159 21.7055 10.7752 21.4705C10.2345 21.2356 9.81129 20.9025 9.50553 20.4712C9.19977 20.0367 9.0308 19.5217 8.99862 18.9263H10.4952C10.5242 19.2836 10.6401 19.5813 10.8428 19.8194C11.0488 20.0544 11.3111 20.2298 11.6297 20.3457C11.9516 20.4583 12.304 20.5146 12.687 20.5146C13.1086 20.5146 13.4836 20.4487 13.8119 20.3167C14.1434 20.1815 14.4041 19.9948 14.594 19.7567C14.7839 19.5153 14.8788 19.2337 14.8788 18.9118C14.8788 18.6189 14.7951 18.3792 14.6278 18.1925C14.4636 18.0058 14.24 17.8513 13.9567 17.729C13.6767 17.6067 13.3597 17.4989 13.0057 17.4056L11.8373 17.0869C11.0456 16.8713 10.418 16.5543 9.95451 16.1359C9.49427 15.7175 9.26414 15.1639 9.26414 14.4751C9.26414 13.9054 9.41863 13.4082 9.72761 12.9833C10.0366 12.5585 10.455 12.2286 10.9828 11.9936C11.5107 11.7555 12.1061 11.6364 12.7691 11.6364C13.4385 11.6364 14.0291 11.7539 14.5409 11.9888C15.0558 12.2238 15.4614 12.5472 15.7575 12.9592C16.0536 13.3679 16.2081 13.8378 16.2209 14.3689H14.7823ZM21.4844 14.2434V15.402H17.4339V14.2434H21.4844ZM18.5202 12.4668H19.9637V19.4815C19.9637 19.7615 20.0055 19.9723 20.0892 20.1139C20.1729 20.2523 20.2807 20.3473 20.4126 20.3988C20.5478 20.447 20.6943 20.4712 20.852 20.4712C20.9678 20.4712 21.0692 20.4631 21.1561 20.447C21.243 20.431 21.3106 20.4181 21.3589 20.4084L21.6196 21.6009C21.5359 21.6331 21.4168 21.6653 21.2623 21.6974C21.1078 21.7328 20.9147 21.7522 20.683 21.7554C20.3032 21.7618 19.9492 21.6942 19.6209 21.5526C19.2926 21.411 19.0271 21.1921 18.8243 20.896C18.6215 20.5999 18.5202 20.2282 18.5202 19.7808V12.4668ZM25.2392 21.823C24.7693 21.823 24.3445 21.7361 23.9647 21.5623C23.5849 21.3852 23.284 21.1294 23.0619 20.7946C22.843 20.4599 22.7336 20.0496 22.7336 19.5636C22.7336 19.1452 22.8141 18.8008 22.975 18.5304C23.1359 18.2601 23.3532 18.046 23.6267 17.8883C23.9003 17.7306 24.2061 17.6115 24.544 17.5311C24.8819 17.4506 25.2263 17.3895 25.5771 17.3476C26.0213 17.2961 26.3818 17.2543 26.6586 17.2221C26.9353 17.1867 27.1365 17.1304 27.262 17.0531C27.3875 16.9759 27.4503 16.8504 27.4503 16.6766V16.6428C27.4503 16.2211 27.3312 15.8945 27.0931 15.6627C26.8581 15.431 26.5073 15.3151 26.0406 15.3151C25.5546 15.3151 25.1716 15.423 24.8916 15.6386C24.6148 15.851 24.4233 16.0876 24.3171 16.3483L22.9605 16.0393C23.1214 15.5887 23.3564 15.225 23.6653 14.9482C23.9775 14.6682 24.3364 14.4655 24.7419 14.3399C25.1475 14.2112 25.5739 14.1468 26.0213 14.1468C26.3174 14.1468 26.6312 14.1822 26.9627 14.253C27.2974 14.3206 27.6096 14.4461 27.8993 14.6296C28.1922 14.8131 28.432 15.0754 28.6186 15.4165C28.8053 15.7545 28.8986 16.1938 28.8986 16.7345V21.6588H27.4889V20.645H27.431C27.3377 20.8317 27.1977 21.0151 27.011 21.1953C26.8243 21.3756 26.5845 21.5252 26.2916 21.6443C25.9988 21.7634 25.6479 21.823 25.2392 21.823ZM25.553 20.6643C25.9521 20.6643 26.2933 20.5854 26.5765 20.4277C26.8629 20.27 27.0802 20.064 27.2282 19.8098C27.3795 19.5523 27.4551 19.2771 27.4551 18.9842V18.0283C27.4036 18.0798 27.3039 18.1281 27.1558 18.1732C27.011 18.215 26.8452 18.252 26.6586 18.2842C26.4719 18.3132 26.29 18.3405 26.113 18.3663C25.936 18.3888 25.788 18.4081 25.6689 18.4242C25.3889 18.4596 25.133 18.5192 24.9013 18.6028C24.6727 18.6865 24.4893 18.8072 24.3509 18.9649C24.2157 19.1194 24.1481 19.3254 24.1481 19.5829C24.1481 19.9401 24.2801 20.2105 24.544 20.3939C24.8079 20.5742 25.1443 20.6643 25.553 20.6643ZM34.2828 14.2434V15.402H30.2323V14.2434H34.2828ZM31.3186 12.4668H32.7621V19.4815C32.7621 19.7615 32.8039 19.9723 32.8876 20.1139C32.9713 20.2523 33.0791 20.3473 33.211 20.3988C33.3462 20.447 33.4927 20.4712 33.6504 20.4712C33.7662 20.4712 33.8676 20.4631 33.9545 20.447C34.0414 20.431 34.109 20.4181 34.1573 20.4084L34.418 21.6009C34.3343 21.6331 34.2152 21.6653 34.0607 21.6974C33.9062 21.7328 33.7131 21.7522 33.4814 21.7554C33.1016 21.7618 32.7476 21.6942 32.4193 21.5526C32.091 21.411 31.8255 21.1921 31.6227 20.896C31.4199 20.5999 31.3186 20.2282 31.3186 19.7808V12.4668ZM41.3168 16.0538L40.0085 16.2855C39.9538 16.1182 39.8669 15.9588 39.7478 15.8076C39.632 15.6563 39.4742 15.5324 39.2747 15.4358C39.0751 15.3393 38.8257 15.291 38.5264 15.291C38.1176 15.291 37.7765 15.3827 37.5029 15.5662C37.2293 15.7464 37.0925 15.9798 37.0925 16.2662C37.0925 16.514 37.1843 16.7136 37.3677 16.8648C37.5512 17.0161 37.8473 17.14 38.256 17.2366L39.434 17.5069C40.1163 17.6646 40.6249 17.9076 40.9596 18.2359C41.2943 18.5642 41.4617 18.9907 41.4617 19.5153C41.4617 19.9594 41.3329 20.3553 41.0755 20.7029C40.8212 21.0473 40.4655 21.3177 40.0085 21.514C39.5547 21.7103 39.0285 21.8085 38.4298 21.8085C37.5995 21.8085 36.922 21.6315 36.3974 21.2774C35.8727 20.9202 35.5509 20.4133 35.4318 19.7567L36.827 19.5443C36.9139 19.9079 37.0925 20.1831 37.3629 20.3698C37.6333 20.5533 37.9857 20.645 38.4202 20.645C38.8933 20.645 39.2715 20.5468 39.5547 20.3505C39.8379 20.1509 39.9795 19.9079 39.9795 19.6215C39.9795 19.3898 39.8926 19.195 39.7189 19.0373C39.5483 18.8796 39.286 18.7605 38.9319 18.6801L37.6767 18.4049C36.9847 18.2472 36.473 17.9962 36.1415 17.6518C35.8132 17.3074 35.6491 16.8713 35.6491 16.3435C35.6491 15.9057 35.7714 15.5227 36.016 15.1944C36.2606 14.8662 36.5985 14.6103 37.0298 14.4268C37.4611 14.2402 37.9551 14.1468 38.5119 14.1468C39.3133 14.1468 39.9441 14.3206 40.4044 14.6682C40.8646 15.0126 41.1688 15.4745 41.3168 16.0538Z" fill="white"/>
<g clip-path="url(#clip0_1_587)">
<path fill-rule="evenodd" clip-rule="evenodd" d="M5.04774 125.617C5.04774 125.617 15.4637 129.326 21.0344 126.308C26.6051 123.29 28.7502 114.571 34.5563 112.813C40.3625 111.055 46.0518 111.317 52.0704 105.088C58.089 98.8581 57.605 92.947 66.3209 90.3079C75.0368 87.6689 89.8495 96.191 98.785 83.5405C107.721 70.89 137.3 80.0682 137.3 80.0682L148.233 116.175L14.4539 156.682L5.04774 125.617Z" fill="url(#paint0_linear_1_587)"/>
<path d="M5.02879 125.557C5.02879 125.557 15.4448 129.265 21.0154 126.248C26.5861 123.23 28.7312 114.511 34.5374 112.753C40.3435 110.995 46.0329 111.257 52.0515 105.027C58.07 98.7977 57.586 92.8867 66.3019 90.2476C75.0178 87.6085 89.8306 96.1306 98.7661 83.4801C107.702 70.8296 137.281 80.0079 137.281 80.0079" stroke="#54CC8B" stroke-width="1.05296"/>
<g filter="url(#filter0_d_1_587)">
<circle cx="100.895" cy="79.998" r="6.44385" fill="white"/>
<circle cx="100.895" cy="79.998" r="5.94385" stroke="#54CC8B"/>
</g>
<circle cx="100.894" cy="79.998" r="3.4082" fill="#54CC8B"/>
</g>
<path d="M70.5109 50.3909C70.5909 48.7909 71.1509 47.5589 72.1909 46.6949C73.2469 45.8149 74.6309 45.3749 76.3429 45.3749C77.5109 45.3749 78.5109 45.5829 79.3429 45.9989C80.1749 46.3989 80.7989 46.9509 81.2149 47.6549C81.6469 48.3429 81.8629 49.1269 81.8629 50.0069C81.8629 51.0149 81.5989 51.8709 81.0709 52.5749C80.5589 53.2629 79.9429 53.7269 79.2229 53.9669V54.0629C80.1509 54.3509 80.8709 54.8629 81.3829 55.5989C81.9109 56.3349 82.1749 57.2789 82.1749 58.4309C82.1749 59.3909 81.9509 60.2469 81.5029 60.9989C81.0709 61.7509 80.4229 62.3429 79.5589 62.7749C78.7109 63.1909 77.6869 63.3989 76.4869 63.3989C74.6789 63.3989 73.2069 62.9429 72.0709 62.0309C70.9349 61.1189 70.3349 59.7749 70.2709 57.9989H73.5349C73.5669 58.7829 73.8309 59.4149 74.3269 59.8949C74.8389 60.3589 75.5349 60.5909 76.4149 60.5909C77.2309 60.5909 77.8549 60.3669 78.2869 59.9189C78.7349 59.4549 78.9589 58.8629 78.9589 58.1429C78.9589 57.1829 78.6549 56.4949 78.0469 56.0789C77.4389 55.6629 76.4949 55.4549 75.2149 55.4549H74.5189V52.6949H75.2149C77.4869 52.6949 78.6229 51.9349 78.6229 50.4149C78.6229 49.7269 78.4149 49.1909 77.9989 48.8069C77.5989 48.4229 77.0149 48.2309 76.2469 48.2309C75.4949 48.2309 74.9109 48.4389 74.4949 48.8549C74.0949 49.2549 73.8629 49.7669 73.7989 50.3909H70.5109ZM86.7021 63.4469C86.0941 63.4469 85.5901 63.2629 85.1901 62.8949C84.8061 62.5109 84.6141 62.0389 84.6141 61.4789C84.6141 60.9189 84.8061 60.4549 85.1901 60.0869C85.5901 59.7029 86.0941 59.5109 86.7021 59.5109C87.2941 59.5109 87.7821 59.7029 88.1661 60.0869C88.5501 60.4549 88.7421 60.9189 88.7421 61.4789C88.7421 62.0389 88.5501 62.5109 88.1661 62.8949C87.7821 63.2629 87.2941 63.4469 86.7021 63.4469ZM93.9925 54.0149C92.3925 53.1829 91.5925 51.8949 91.5925 50.1509C91.5925 49.2869 91.8085 48.5029 92.2405 47.7989C92.6885 47.0789 93.3525 46.5109 94.2325 46.0949C95.1285 45.6629 96.2165 45.4469 97.4965 45.4469C98.7765 45.4469 99.8565 45.6629 100.736 46.0949C101.632 46.5109 102.296 47.0789 102.728 47.7989C103.176 48.5029 103.4 49.2869 103.4 50.1509C103.4 51.0309 103.184 51.8069 102.752 52.4789C102.32 53.1349 101.744 53.6469 101.024 54.0149C101.904 54.3989 102.592 54.9589 103.088 55.6949C103.584 56.4309 103.832 57.3029 103.832 58.3109C103.832 59.3989 103.552 60.3509 102.992 61.1669C102.448 61.9669 101.696 62.5829 100.736 63.0149C99.7765 63.4469 98.6965 63.6629 97.4965 63.6629C96.2965 63.6629 95.2165 63.4469 94.2565 63.0149C93.3125 62.5829 92.5605 61.9669 92.0005 61.1669C91.4565 60.3509 91.1845 59.3989 91.1845 58.3109C91.1845 57.3029 91.4325 56.4309 91.9285 55.6949C92.4245 54.9429 93.1125 54.3829 93.9925 54.0149ZM100.136 50.6309C100.136 49.8469 99.8965 49.2389 99.4165 48.8069C98.9525 48.3749 98.3125 48.1589 97.4965 48.1589C96.6965 48.1589 96.0565 48.3749 95.5765 48.8069C95.1125 49.2389 94.8805 49.8549 94.8805 50.6549C94.8805 51.3749 95.1205 51.9509 95.6005 52.3829C96.0965 52.8149 96.7285 53.0309 97.4965 53.0309C98.2645 53.0309 98.8965 52.8149 99.3925 52.3829C99.8885 51.9349 100.136 51.3509 100.136 50.6309ZM97.4965 55.4789C96.5845 55.4789 95.8405 55.7109 95.2645 56.1749C94.7045 56.6389 94.4245 57.3029 94.4245 58.1669C94.4245 58.9669 94.6965 59.6229 95.2405 60.1349C95.8005 60.6309 96.5525 60.8789 97.4965 60.8789C98.4405 60.8789 99.1845 60.6229 99.7285 60.1109C100.272 59.5989 100.544 58.9509 100.544 58.1669C100.544 57.3189 100.264 56.6629 99.7045 56.1989C99.1445 55.7189 98.4085 55.4789 97.4965 55.4789ZM114.742 63.2789L110.23 57.6149V63.2789H106.87V45.5189H110.23V55.6229L114.694 49.9829H119.062L113.206 56.6549L119.11 63.2789H114.742Z" fill="white"/>
<defs>
<filter id="filter0_d_1_587" x="58.4507" y="61.5542" width="84.8877" height="84.8877" filterUnits="userSpaceOnUse" color-interpolation-filters="sRGB">
<feFlood flood-opacity="0" result="BackgroundImageFix"/>
<feColorMatrix in="SourceAlpha" type="matrix" values="0 0 0 0 0 0 0 0 0 0 0 0 0 0 0 0 0 0 127 0" result="hardAlpha"/>
<feMorphology radius="12" operator="erode" in="SourceAlpha" result="effect1_dropShadow_1_587"/>
<feOffset dy="24"/>
<feGaussianBlur stdDeviation="24"/>
<feColorMatrix type="matrix" values="0 0 0 0 0.0625882 0 0 0 0 0.0926346 0 0 0 0 0.15702 0 0 0 0.18 0"/>
<feBlend mode="normal" in2="BackgroundImageFix" result="effect1_dropShadow_1_587"/>
<feBlend mode="normal" in="SourceGraphic" in2="effect1_dropShadow_1_587" result="shape"/>
</filter>
<linearGradient id="paint0_linear_1_587" x1="81.4415" y1="137.054" x2="67.023" y2="89.4354" gradientUnits="userSpaceOnUse">
<stop stop-color="white" stop-opacity="0"/>
<stop offset="1" stop-color="#54CC8B" stop-opacity="0.35"/>
</linearGradient>
<clipPath id="clip0_1_587">
<rect width="122" height="103" fill="white" transform="translate(8.19092 61.6588)"/>
</clipPath>
</defs>
</svg>
