<svg width="105" height="125" viewBox="0 0 105 125" fill="none" xmlns="http://www.w3.org/2000/svg">
<path d="M52.6237 118.28L28.0776 160.794L3.53447 118.28L28.0776 75.7651L52.6237 118.28ZM93.0409 47.6394L68.4978 90.1508L43.9548 47.6394L68.4978 5.12495L93.0409 47.6394ZM108.029 71.5767H106.415L94.883 91.5501H70.918L95.4611 49.0356H144.553L131.539 71.5767H108.029ZM134.184 116.883L109.641 74.369H158.733L183.276 116.883H134.184ZM70.918 3.72882L120.007 3.73189L144.553 46.2402H95.4611L70.918 3.72882ZM30.4977 74.369H56.1602L67.6921 94.3423H93.3331L80.2574 116.883H55.0439L30.4977 74.369ZM30.4977 162.19L55.0439 119.676H80.2574L92.1952 140.353L79.59 162.187L30.4977 162.19ZM82.6775 118.28L107.221 75.7651L131.767 118.28L107.221 160.794L82.6775 118.28ZM109.641 162.19L134.184 119.676H183.276L158.733 162.187L109.641 162.19ZM186.502 116.883L160.344 71.5767H134.765L148.585 47.6394L121.619 0.936547L67.6921 0.933472L40.7258 47.6394L54.5488 71.5767H27.2719L0.308594 118.28L27.2719 164.986L81.2014 164.982L93.8066 143.146L106.415 164.986L160.344 164.982L187.308 118.28L186.502 116.883Z" fill="#0525FF"/>
</svg>
