<svg width="135" height="124" viewBox="0 0 135 124" fill="none" xmlns="http://www.w3.org/2000/svg">
<path d="M52.4899 117.575L27.9438 160.089L3.40068 117.575L27.9438 75.06L52.4899 117.575ZM92.9071 46.9344L68.364 89.4458L43.821 46.9344L68.364 4.41988L92.9071 46.9344ZM107.896 70.8716H106.281L94.7492 90.845H70.7842L95.3273 48.3305H144.42L131.405 70.8716H107.896ZM134.05 116.178L109.507 73.6639H158.599L183.142 116.178H134.05ZM70.7842 3.02374L119.873 3.02682L144.42 45.5351H95.3273L70.7842 3.02374ZM30.3639 73.6639H56.0264L67.5583 93.6373H93.1993L80.1236 116.178H54.9101L30.3639 73.6639ZM30.3639 161.485L54.9101 118.971H80.1236L92.0614 139.648L79.4563 161.482L30.3639 161.485ZM82.5437 117.575L107.087 75.06L131.633 117.575L107.087 160.089L82.5437 117.575ZM109.507 161.485L134.05 118.971H183.142L158.599 161.482L109.507 161.485ZM186.368 116.178L160.211 70.8716H134.631L148.451 46.9344L121.485 0.231469L67.5583 0.228394L40.592 46.9344L54.415 70.8716H27.1381L0.174805 117.575L27.1381 164.28L81.0676 164.277L93.6729 142.44L106.281 164.28L160.211 164.277L187.174 117.575L186.368 116.178Z" fill="#FF0000"/>
</svg>
