<svg width="149" height="242" viewBox="0 0 149 242" fill="none" xmlns="http://www.w3.org/2000/svg">
<mask id="mask0_1_502" style="mask-type:luminance" maskUnits="userSpaceOnUse" x="-148" y="-39" width="297" height="281">
<path d="M-147.167 -38.0957H148.116V241.962H-147.167V-38.0957Z" fill="white"/>
</mask>
<g mask="url(#mask0_1_502)">
<path d="M-104.977 -33.1798L36.2504 48.3113L0.473373 68.955L-140.754 -12.5394L-104.977 -33.1798ZM106.001 -33.1798L141.708 -12.5394L40.525 45.8465L4.82227 25.2095L106.001 -33.1798ZM143.845 32.4453L2.61069 113.94V72.6556L143.845 -8.83882V32.4453ZM38.3911 98.2323V215.156L2.61069 235.796V118.876L38.3911 98.2323ZM-37.3667 215.156V52.0862L-1.66055 72.659V235.793L-37.3667 215.156ZM-142.898 32.4453V-8.8422L-41.6379 49.6112V90.8379L-142.898 32.4453ZM-147.169 -13.7752V34.9135L-41.6379 95.7641V217.621L0.476746 241.962L42.6623 217.624V95.7641L148.116 34.9135V-13.7718L106.001 -38.1128L0.510513 22.7615L-104.977 -38.1128L-147.169 -13.7752Z" fill="white"/>
</g>
</svg>
