<svg width="378" height="145" viewBox="0 0 378 145" fill="none" xmlns="http://www.w3.org/2000/svg">
<mask id="mask0_1_507" style="mask-type:luminance" maskUnits="userSpaceOnUse" x="0" y="0" width="569" height="341">
<path d="M0.845703 0.824707H568.084V340.206H0.845703V0.824707Z" fill="white"/>
</mask>
<g mask="url(#mask0_1_507)">
<path d="M507.901 173.559H556.443L395.873 334.125H347.331L507.901 173.559ZM177.643 170.517L227.015 121.144L251.62 145.749L226.798 170.513L339.99 283.708L453.185 170.517L339.994 57.3218L314.116 83.1997L289.569 58.6484L339.994 8.16194L502.341 170.517L339.998 332.864L177.643 170.517ZM229.218 334.125H179.141L230.029 283.274L230.471 283.721L256.357 257.83L280.966 282.443L229.218 334.125ZM201.137 245.764L125.887 170.517L201.137 95.2665L222.712 116.845L169.044 170.517L222.712 224.189L201.137 245.764ZM120.33 173.559L196.838 250.067L171.795 275.11L70.2452 173.559H120.33ZM120.33 167.475H70.2452L171.795 65.9204L196.838 90.9671L120.33 167.475ZM238.46 167.475L255.923 150.052L273.346 167.475H238.46ZM273.362 173.559L255.923 191.039L238.443 173.559H273.362ZM9.44437 170.517L171.795 8.16194L334.147 170.521L284.778 219.89L260.223 195.339L284.983 170.513L171.795 57.3218L58.6042 170.517L171.795 283.708L227.015 228.489L251.624 253.101L171.795 332.864L9.44437 170.517ZM401.433 170.517L318.415 87.499L339.994 65.9204L444.582 170.517L339.998 275.11L318.415 253.527L401.433 170.517ZM339.695 173.559H389.792L314.116 249.228L289.073 224.185L339.695 173.559ZM280.966 58.6484L389.792 167.475H339.703L179.137 6.90489H229.218L280.966 58.6484ZM395.873 6.90489L556.443 167.475H507.901L347.335 6.90489H395.873ZM568.084 170.517L398.37 0.820312H338.733L285.265 54.3491L231.74 0.820312H170.534L0.845703 170.517L170.518 340.189L231.74 340.206L285.265 286.742L338.733 340.206H398.391L568.084 170.517Z" fill="white"/>
</g>
</svg>
