<svg width="21" height="21" viewBox="0 0 21 21" fill="none" xmlns="http://www.w3.org/2000/svg">
<path d="M17.4746 1.16455H3.47461C2.37461 1.16455 1.47461 2.06455 1.47461 3.16455V17.1646C1.47461 18.2656 2.37461 19.1646 3.47461 19.1646H10.4746V12.1646H8.47461V9.68955H10.4746V7.63955C10.4746 5.47555 11.6866 3.95555 14.2406 3.95555L16.0436 3.95755V6.56255H14.8466C13.8526 6.56255 13.4746 7.30855 13.4746 8.00055V9.69055H16.0426L15.4746 12.1646H13.4746V19.1646H17.4746C18.5746 19.1646 19.4746 18.2656 19.4746 17.1646V3.16455C19.4746 2.06455 18.5746 1.16455 17.4746 1.16455Z" fill="white"/>
</svg>
