<svg width="340" height="61" viewBox="0 0 340 61" fill="none" xmlns="http://www.w3.org/2000/svg">
<path d="M62.6797 0.720215L62.6797 54.5202" stroke="#FF0000" stroke-width="2.99446"/>
<path d="M78.8381 17.3516L76.5205 31.431H79.9039L81.0104 24.7815C81.0937 24.3393 81.1981 23.747 81.1981 23.3461C81.1981 23.2405 81.1981 22.8609 81.1981 22.5656C81.345 23.3047 81.8657 24.6561 82.3259 25.5636L85.2279 31.431H88.3175L90.6352 17.3516H87.3154L86.4389 22.6926C86.3345 23.4103 86.1468 24.4234 86.1468 24.7815C86.1468 25.0769 86.1468 25.3309 86.1876 25.6263C85.8122 24.2536 84.2878 20.9832 84.1001 20.5822L82.5969 17.3516H78.8381Z" fill="white"/>
<path d="M99.0778 17.3515L92.626 31.4309H96.0714L97.3657 28.5599H101.103L101.5 31.4309H105.592L103.441 17.3515H99.0778ZM100.289 21.5738L100.852 25.6476H98.4723L100.289 21.5738Z" fill="white"/>
<path d="M112.053 17.3515L109.716 31.4309H113.682L114.58 26.0899H116.23L117.462 31.4309H121.575L120.051 25.542C122.097 24.8656 122.974 23.1348 122.974 21.4468C122.974 19.3991 121.805 17.3515 118.422 17.3515H112.053ZM117.023 20.3066C118.172 20.3066 118.882 20.7504 118.882 21.6151C118.882 22.4384 118.339 23.1562 116.773 23.1562H115.061L115.52 20.3066H117.023Z" fill="white"/>
<path d="M128.85 17.3515L126.512 31.4309H130.478L131.376 26.0899H133.026L134.258 31.4309H138.371L136.847 25.542C138.894 24.8656 139.77 23.1348 139.77 21.4468C139.77 19.3991 138.601 17.3515 135.218 17.3515H128.85ZM133.819 20.3066C134.968 20.3066 135.678 20.7504 135.678 21.6151C135.678 22.4384 135.135 23.1562 133.57 23.1562H131.857L132.316 20.3066H133.819Z" fill="white"/>
<path d="M148.728 17.3516L142.276 31.431H145.722L147.016 28.56H150.754L151.15 31.431H155.242L153.091 17.3516H148.728ZM149.939 21.5739L150.502 25.6477H148.123L149.939 21.5739Z" fill="white"/>
<path d="M160.755 17.3516L160.212 20.5822H163.198L161.403 31.4309H165.433L167.228 20.5822H170.297L170.84 17.3516H160.755Z" fill="white"/>
<path d="M175.099 17.3515L172.782 31.4309H176.728L179.046 17.3515H175.099Z" fill="white"/>
<path d="M182.95 17.3515L185.643 31.4309H189.694L195.937 17.3515H192.534L189.526 24.4646C189.506 24.5289 188.733 26.3868 188.733 26.4495C188.504 24.9712 188.441 24.8656 188.274 23.8326L187.209 17.3515H182.95Z" fill="white"/>
<path d="M200.062 17.3515L197.744 31.4309H207.997L208.539 28.2018H202.318L202.714 25.7104H207.725L208.226 22.6496H203.236L203.591 20.4337H209.541L210.064 17.3515H200.062Z" fill="white"/>
<path d="M219.32 17.1204C215.394 17.1204 213.765 19.3363 213.765 21.7421C213.765 22.4598 213.953 23.2617 214.475 23.9381C214.998 24.613 216.042 25.2466 217.838 25.8802C219.925 26.6178 220.3 26.7877 220.3 27.3784C220.3 27.8635 219.946 28.4129 218.673 28.4129C217.315 28.4129 216.418 27.9064 216.104 26.9132L212.096 27.7151C213.055 30.6075 215.874 31.642 218.61 31.642C222.43 31.642 224.748 29.5316 224.748 26.7448C224.748 24.9512 223.537 23.5785 221.846 22.9878C218.797 21.9104 218.255 21.8063 218.255 21.0672C218.255 20.6019 218.735 20.1796 219.612 20.1796C220.552 20.1796 221.554 20.6662 221.72 21.5309L225.313 20.6019C224.415 18.1962 222.222 17.1204 219.32 17.1204Z" fill="white"/>
<path d="M239.75 17.3515L237.433 31.4309H241.463L242.341 26.07H246.808L247.33 23.0093H242.863L243.259 20.5178H249.021L249.543 17.3515H239.75Z" fill="white"/>
<path d="M253.811 17.3516L251.493 31.4309H255.44L257.758 17.3516H253.811Z" fill="white"/>
<path d="M263.112 17.3516L260.794 31.4309H264.177L265.284 24.7815C265.367 24.3392 265.472 23.747 265.472 23.346C265.472 23.2404 265.472 22.8609 265.472 22.5655C265.618 23.3047 266.139 24.656 266.599 25.5635L269.501 31.4309H272.591L274.909 17.3516H271.589L270.712 22.6925C270.608 23.4103 270.42 24.4234 270.42 24.7815C270.42 25.0768 270.42 25.3309 270.461 25.6262C270.086 24.2535 268.561 20.9831 268.374 20.5822L266.87 17.3516H263.112Z" fill="white"/>
<path d="M283.336 17.3516L276.884 31.4309H280.329L281.623 28.56H285.361L285.758 31.4309H289.849L287.698 17.3516H283.336ZM284.547 21.5738L285.11 25.6477H282.73L284.547 21.5738Z" fill="white"/>
<path d="M296.324 17.3515L294.006 31.4309H297.389L298.496 24.7814C298.579 24.3391 298.684 23.7469 298.684 23.3459C298.684 23.2403 298.684 22.8608 298.684 22.5655C298.831 23.3046 299.351 24.6559 299.812 25.5634L302.713 31.4309H305.803L308.121 17.3515H304.801L303.925 22.6925C303.82 23.4102 303.632 24.4233 303.632 24.7814C303.632 25.0768 303.632 25.3308 303.673 25.6262C303.298 24.2534 301.773 20.9831 301.586 20.5821L300.082 17.3515H296.324Z" fill="white"/>
<path d="M318.799 17.0349C314.143 17.0349 311.678 21.2358 311.678 25.3096C311.678 29.1095 313.892 31.7264 317.42 31.7264C320.365 31.7264 322.62 29.8686 323.622 26.4711L319.885 25.9845C319.405 27.4842 318.945 28.3703 317.672 28.3703C316.606 28.3703 316 27.7153 316 26.1758C316 25.204 316.147 24.3592 316.544 22.6085C316.878 21.1087 317.672 20.2227 318.695 20.2227C319.802 20.2227 320.365 20.9618 320.365 22.7983L324.29 22.5029C324.248 19.0412 321.868 17.0349 318.799 17.0349Z" fill="white"/>
<path d="M329.601 17.3516L327.283 31.4309H337.536L338.078 28.2018H331.856L332.253 25.7104H337.263L337.765 22.6497H332.775L333.129 20.4337H339.08L339.602 17.3516H329.601Z" fill="white"/>
<mask id="mask0_1_139" style="mask-type:luminance" maskUnits="userSpaceOnUse" x="0" y="2" width="50" height="51">
<path d="M0.604492 2.98834H49.3428V52.2615H0.604492V2.98834Z" fill="white"/>
</mask>
<g mask="url(#mask0_1_139)">
<g filter="url(#filter0_d_1_139)">
<path fill-rule="evenodd" clip-rule="evenodd" d="M24.9661 2.98834C38.3662 2.98834 49.3292 14.0712 49.3292 27.618C49.3292 41.1648 38.3662 52.2477 24.9661 52.2477C11.5674 52.2477 0.604492 41.1648 0.604492 27.618C0.604492 14.0712 11.5674 2.98834 24.9661 2.98834ZM24.9661 4.80795C12.5559 4.80795 2.40289 15.0721 2.40289 27.618C2.40289 40.164 12.5559 50.4281 24.9661 50.4281C37.3762 50.4281 47.5308 40.164 47.5308 27.618C47.5308 15.0721 37.3762 4.80795 24.9661 4.80795Z" fill="#0525FF"/>
</g>
</g>
<path d="M24.9654 13.0672C28.9407 13.0672 32.539 14.697 35.1427 17.3293C37.7479 19.963 39.3586 23.6007 39.3586 27.6179C39.3586 31.6351 37.7479 35.2728 35.1427 37.9066C32.539 40.5388 28.9407 42.1686 24.9654 42.1686C20.9917 42.1686 17.3934 40.5388 14.7881 37.9066C12.1844 35.2728 10.5737 31.6351 10.5737 27.6179C10.5737 23.6007 12.1844 19.963 14.7881 17.3293C17.3934 14.697 20.9917 13.0672 24.9654 13.0672ZM34.5069 17.972C32.0651 15.5035 28.6924 13.9778 24.9654 13.9778C21.24 13.9778 17.8672 15.5035 15.4255 17.972C12.9822 20.4405 11.4729 23.8517 11.4729 27.6179C11.4729 31.3841 12.9822 34.7953 15.4255 37.2638C17.8672 39.7323 21.24 41.2581 24.9654 41.2581C28.6924 41.2581 32.0651 39.7323 34.5069 37.2638C36.9487 34.7953 38.4594 31.3841 38.4594 27.6179C38.4594 23.8517 36.9487 20.4405 34.5069 17.972Z" fill="#0525FF"/>
<path d="M36.6043 20.309H13.3281V19.4H36.6043V20.309Z" fill="#0525FF"/>
<path d="M38.9111 28.0725H11.0254V27.1635H38.9111V28.0725Z" fill="#0525FF"/>
<path d="M36.6043 35.836H13.3281V34.927H36.6043V35.836Z" fill="#0525FF"/>
<path d="M24.9673 13.0672C27.8299 13.0672 30.4094 14.72 32.2669 17.3905C34.0925 20.0135 35.2218 23.6298 35.2218 27.6179C35.2218 31.606 34.0925 35.2223 32.2669 37.8453C30.4094 40.5158 27.8299 42.1686 24.9673 42.1686C22.1047 42.1686 19.5252 40.5158 17.6678 37.8453C15.8437 35.2223 14.7144 31.606 14.7144 27.6179C14.7144 23.6298 15.8437 20.0135 17.6678 17.3905C19.5252 14.72 22.1047 13.0672 24.9673 13.0672ZM31.5327 17.9123C29.8418 15.4806 27.5196 13.9778 24.9673 13.9778C22.4151 13.9778 20.0929 15.4806 18.4035 17.9123C16.6793 20.39 15.6136 23.8211 15.6136 27.6179C15.6136 31.4147 16.6793 34.8458 18.4035 37.3235C20.0929 39.7552 22.4151 41.2581 24.9673 41.2581C27.5196 41.2581 29.8418 39.7552 31.5327 37.3235C33.2554 34.8458 34.3211 31.4147 34.3211 27.6179C34.3211 23.8211 33.2554 20.39 31.5327 17.9123Z" fill="#0525FF"/>
<path d="M24.966 13.0672C26.389 13.0672 27.6272 14.7674 28.4765 17.516C29.2773 20.1084 29.7738 23.6818 29.7738 27.6179C29.7738 31.554 29.2773 35.1274 28.4765 37.7198C27.6272 40.4684 26.389 42.1686 24.966 42.1686C23.543 42.1686 22.3062 40.4684 21.457 37.7198C20.6547 35.1274 20.1597 31.554 20.1597 27.6179C20.1597 23.6818 20.6547 20.1084 21.457 17.516C22.3062 14.7674 23.543 13.0672 24.966 13.0672ZM27.6182 17.7853C26.8915 15.4331 25.95 13.9778 24.966 13.9778C23.9835 13.9778 23.0419 15.4331 22.3138 17.7853C21.5387 20.2951 21.0589 23.7706 21.0589 27.6179C21.0589 31.4652 21.5387 34.9407 22.3138 37.4505C23.0419 39.8027 23.9835 41.2581 24.966 41.2581C25.95 41.2581 26.8915 39.8027 27.6182 37.4505C28.3947 34.9407 28.8731 31.4652 28.8731 27.6179C28.8731 23.7706 28.3947 20.2951 27.6182 17.7853Z" fill="#0525FF"/>
<mask id="mask1_1_139" style="mask-type:luminance" maskUnits="userSpaceOnUse" x="17" y="20" width="16" height="15">
<path d="M17.6799 20.2491H32.2593V34.988H17.6799V20.2491Z" fill="white"/>
</mask>
<g mask="url(#mask1_1_139)">
<mask id="mask2_1_139" style="mask-type:luminance" maskUnits="userSpaceOnUse" x="17" y="20" width="16" height="15">
<path d="M24.9716 20.249C20.9449 20.249 17.6812 23.5485 17.6812 27.6177C17.6812 31.6885 20.9449 34.988 24.9716 34.988C28.9968 34.988 32.2606 31.6885 32.2606 27.6177C32.2606 23.5485 28.9968 20.249 24.9716 20.249Z" fill="white"/>
</mask>
<g mask="url(#mask2_1_139)">
<path d="M17.6812 20.249H32.2606V34.988H17.6812V20.249Z" fill="#1E1E1E"/>
</g>
</g>
<mask id="mask3_1_139" style="mask-type:luminance" maskUnits="userSpaceOnUse" x="20" y="22" width="10" height="11">
<path d="M20.3291 22.707H29.6117V32.385H20.3291V22.707Z" fill="white"/>
</mask>
<g mask="url(#mask3_1_139)">
<path d="M22.7966 31.7147V23.7369L22.618 23.5196H21.1299V31.7147H22.7966ZM28.8064 31.7147V31.0459L23.5989 24.7133V27.1756L27.3183 31.7147H28.8064ZM27.1397 23.5196V27.7556L28.8064 29.7834V23.5196H27.1397ZM26.3374 26.7777V22.7085H29.6072V32.5258H26.9429L26.8233 32.3789L23.5989 28.4458V32.5258H20.3291V22.7085H22.9904L23.1115 22.8554L26.3374 26.7777Z" fill="#FF0000"/>
</g>
<defs>
<filter id="filter0_d_1_139" x="-3.39551" y="2.98834" width="56.7246" height="57.2594" filterUnits="userSpaceOnUse" color-interpolation-filters="sRGB">
<feFlood flood-opacity="0" result="BackgroundImageFix"/>
<feColorMatrix in="SourceAlpha" type="matrix" values="0 0 0 0 0 0 0 0 0 0 0 0 0 0 0 0 0 0 127 0" result="hardAlpha"/>
<feOffset dy="4"/>
<feGaussianBlur stdDeviation="2"/>
<feComposite in2="hardAlpha" operator="out"/>
<feColorMatrix type="matrix" values="0 0 0 0 0 0 0 0 0 0 0 0 0 0 0 0 0 0 0.25 0"/>
<feBlend mode="normal" in2="BackgroundImageFix" result="effect1_dropShadow_1_139"/>
<feBlend mode="normal" in="SourceGraphic" in2="effect1_dropShadow_1_139" result="shape"/>
</filter>
</defs>
</svg>
