<svg width="140" height="145" viewBox="0 0 140 145" fill="none" xmlns="http://www.w3.org/2000/svg">
<g filter="url(#filter0_d_1_425)">
<rect x="31.9746" y="12.6646" width="72" height="72" rx="36" fill="#1130FB"/>
<path d="M73.3079 45.6646H62.6413C61.7213 45.6646 60.9746 46.4112 60.9746 47.3312V48.7312C61.0146 48.7179 61.0413 48.7046 61.0813 48.6912C61.2413 48.6112 61.4146 48.5579 61.5879 48.5046C61.6679 48.4779 61.7479 48.4512 61.8413 48.4246C62.1079 48.3712 62.3746 48.3312 62.6546 48.3312H73.3213C73.6013 48.3312 73.8679 48.3712 74.1346 48.4246C74.2146 48.4379 74.2946 48.4779 74.3879 48.5046C74.5613 48.5579 74.7346 48.6112 74.8946 48.6912C74.9346 48.7046 74.9746 48.7179 75.0013 48.7312V47.3312C74.9746 46.4112 74.2279 45.6646 73.3079 45.6646Z" fill="white"/>
<path d="M73.3079 50.3313H62.6413C61.7213 50.3313 60.9746 51.078 60.9746 51.998V52.6646H64.6413C65.1879 52.6646 65.6413 53.118 65.6413 53.6646C65.6413 54.9446 66.6946 55.998 67.9746 55.998C69.2546 55.998 70.3079 54.9446 70.3079 53.6646C70.3079 53.118 70.7613 52.6646 71.3079 52.6646H74.9746V51.998C74.9746 51.078 74.2279 50.3313 73.3079 50.3313Z" fill="white"/>
<path d="M73.3079 41.3313H62.6413C61.7213 41.3313 60.9746 42.078 60.9746 42.998V44.078C61.4813 43.8246 62.0413 43.6646 62.6413 43.6646H73.3079C73.9079 43.6646 74.4679 43.8246 74.9746 44.078V42.998C74.9746 42.078 74.2279 41.3313 73.3079 41.3313Z" fill="white"/>
<path d="M73.5611 35.3313H62.3878C57.5344 35.3313 54.6411 38.2246 54.6411 43.078V54.238C54.6411 59.1046 57.5344 61.998 62.3878 61.998H73.5478C78.4011 61.998 81.2944 59.1046 81.2944 54.2513V43.078C81.3078 38.2246 78.4144 35.3313 73.5611 35.3313ZM77.3078 54.6646H75.9744H72.1878C71.7344 56.5713 70.0144 57.998 67.9744 57.998C65.9344 57.998 64.2144 56.5713 63.7611 54.6646H59.9744H58.6411C58.0944 54.6646 57.6411 54.2113 57.6411 53.6646C57.6411 53.118 58.0944 52.6646 58.6411 52.6646H58.9744V51.998V51.3313V47.3313V42.998C58.9744 40.9713 60.6144 39.3313 62.6411 39.3313H73.3078C75.3344 39.3313 76.9744 40.9713 76.9744 42.998V47.3313V51.3313V51.998V52.6646H77.3078C77.8544 52.6646 78.3078 53.118 78.3078 53.6646C78.3078 54.2113 77.8544 54.6646 77.3078 54.6646Z" fill="white"/>
</g>
<defs>
<filter id="filter0_d_1_425" x="-4.02539" y="0.664551" width="144" height="144" filterUnits="userSpaceOnUse" color-interpolation-filters="sRGB">
<feFlood flood-opacity="0" result="BackgroundImageFix"/>
<feColorMatrix in="SourceAlpha" type="matrix" values="0 0 0 0 0 0 0 0 0 0 0 0 0 0 0 0 0 0 127 0" result="hardAlpha"/>
<feMorphology radius="12" operator="erode" in="SourceAlpha" result="effect1_dropShadow_1_425"/>
<feOffset dy="24"/>
<feGaussianBlur stdDeviation="24"/>
<feColorMatrix type="matrix" values="0 0 0 0 0.0625882 0 0 0 0 0.0926346 0 0 0 0 0.15702 0 0 0 0.18 0"/>
<feBlend mode="normal" in2="BackgroundImageFix" result="effect1_dropShadow_1_425"/>
<feBlend mode="normal" in="SourceGraphic" in2="effect1_dropShadow_1_425" result="shape"/>
</filter>
</defs>
</svg>
