<svg width="140" height="145" viewBox="0 0 140 145" fill="none" xmlns="http://www.w3.org/2000/svg">
<g filter="url(#filter0_d_1_467)">
<rect x="31.9746" y="12.6646" width="72" height="72" rx="36" fill="#1130FB"/>
<path d="M77.0547 40.9979H78.868C78.6147 40.6379 78.348 40.3045 78.068 39.9712L77.0547 40.9979Z" fill="white"/>
<path d="M76.6678 38.5578C76.3344 38.2778 76.0011 38.0111 75.6411 37.7578V39.5711L76.6678 38.5578Z" fill="white"/>
<path d="M78.0813 39.9711L82.0146 36.0378C82.4013 35.6511 82.4013 35.0111 82.0146 34.6245C81.628 34.2378 80.988 34.2378 80.6013 34.6245L76.668 38.5578C77.1746 38.9978 77.6413 39.4778 78.0813 39.9711Z" fill="white"/>
<path d="M75.6415 36.6646C75.6415 36.1179 75.1881 35.6646 74.6415 35.6646C74.1081 35.6646 73.6815 36.0912 73.6548 36.6112C74.3481 36.9446 75.0148 37.3179 75.6415 37.7579V36.6646Z" fill="white"/>
<path d="M80.9748 41.9978C80.9748 41.4511 80.5215 40.9978 79.9748 40.9978H78.8682C79.3082 41.6245 79.6948 42.2911 80.0148 42.9845C80.5482 42.9578 80.9748 42.5311 80.9748 41.9978Z" fill="white"/>
<path d="M68.9746 52.3311H69.3746C69.8946 52.3311 70.3079 51.8645 70.3079 51.2911C70.3079 50.5711 70.1079 50.4645 69.6546 50.3045L68.9746 50.0645V52.3311Z" fill="white"/>
<path d="M80.0278 42.9846C80.0144 42.9846 80.0011 42.998 79.9744 42.998H74.6411C74.5078 42.998 74.3878 42.9713 74.2544 42.918C74.0144 42.8113 73.8144 42.6246 73.7078 42.3713C73.6678 42.2513 73.6411 42.1313 73.6411 41.998V36.6646C73.6411 36.6513 73.6544 36.638 73.6544 36.6113C71.9211 35.798 70.0011 35.3313 67.9744 35.3313C60.6144 35.3313 54.6411 41.3046 54.6411 48.6646C54.6411 56.0246 60.6144 61.998 67.9744 61.998C75.3344 61.998 81.3078 56.0246 81.3078 48.6646C81.3078 46.638 80.8411 44.718 80.0278 42.9846ZM70.3078 48.4246C71.1611 48.718 72.3078 49.3446 72.3078 51.3046C72.3078 52.9713 70.9878 54.3446 69.3744 54.3446H68.9744V54.678C68.9744 55.2246 68.5211 55.678 67.9744 55.678C67.4278 55.678 66.9744 55.2246 66.9744 54.678V54.3446H66.8678C65.0944 54.3446 63.6411 52.8513 63.6411 51.0113C63.6411 50.4513 64.0944 49.998 64.6411 49.998C65.1878 49.998 65.6411 50.4513 65.6411 50.998C65.6411 51.7313 66.1878 52.3313 66.8678 52.3313H66.9744V49.3713L65.6411 48.9046C64.7878 48.6113 63.6411 47.9846 63.6411 46.0246C63.6411 44.358 64.9611 42.9846 66.5744 42.9846H66.9744V42.6646C66.9744 42.118 67.4278 41.6646 67.9744 41.6646C68.5211 41.6646 68.9744 42.118 68.9744 42.6646V42.998H69.0811C70.8544 42.998 72.3078 44.4913 72.3078 46.3313C72.3078 46.878 71.8544 47.3313 71.3078 47.3313C70.7611 47.3313 70.3078 46.878 70.3078 46.3313C70.3078 45.598 69.7611 44.998 69.0811 44.998H68.9744V47.958L70.3078 48.4246Z" fill="white"/>
<path d="M65.6411 46.0378C65.6411 46.7578 65.8411 46.8645 66.2944 47.0245L66.9744 47.2645V44.9978H66.5744C66.0678 44.9978 65.6411 45.4645 65.6411 46.0378Z" fill="white"/>
</g>
<defs>
<filter id="filter0_d_1_467" x="-4.02539" y="0.664551" width="144" height="144" filterUnits="userSpaceOnUse" color-interpolation-filters="sRGB">
<feFlood flood-opacity="0" result="BackgroundImageFix"/>
<feColorMatrix in="SourceAlpha" type="matrix" values="0 0 0 0 0 0 0 0 0 0 0 0 0 0 0 0 0 0 127 0" result="hardAlpha"/>
<feMorphology radius="12" operator="erode" in="SourceAlpha" result="effect1_dropShadow_1_467"/>
<feOffset dy="24"/>
<feGaussianBlur stdDeviation="24"/>
<feColorMatrix type="matrix" values="0 0 0 0 0.0625882 0 0 0 0 0.0926346 0 0 0 0 0.15702 0 0 0 0.18 0"/>
<feBlend mode="normal" in2="BackgroundImageFix" result="effect1_dropShadow_1_467"/>
<feBlend mode="normal" in="SourceGraphic" in2="effect1_dropShadow_1_467" result="shape"/>
</filter>
</defs>
</svg>
