<svg width="140" height="145" viewBox="0 0 140 145" fill="none" xmlns="http://www.w3.org/2000/svg">
<g filter="url(#filter0_d_1_330)">
<rect x="31.9746" y="12.6646" width="72" height="72" rx="36" fill="#1130FB"/>
<path d="M79.8547 47.4913V41.638C79.8547 40.5446 79.0281 39.3046 78.0014 38.8913L70.5747 35.8513C68.9081 35.1713 67.0281 35.1713 65.3614 35.8513L57.9347 38.8913C56.9214 39.3046 56.0947 40.5446 56.0947 41.638V47.4913C56.0947 54.0113 60.8281 60.118 67.2947 61.9046C67.7347 62.0246 68.2147 62.0246 68.6547 61.9046C75.1214 60.118 79.8547 54.0113 79.8547 47.4913ZM68.9747 49.8246V53.3313C68.9747 53.878 68.5214 54.3313 67.9747 54.3313C67.4281 54.3313 66.9747 53.878 66.9747 53.3313V49.8246C65.6281 49.398 64.6414 48.1446 64.6414 46.6646C64.6414 44.8246 66.1347 43.3313 67.9747 43.3313C69.8147 43.3313 71.3081 44.8246 71.3081 46.6646C71.3081 48.158 70.3214 49.398 68.9747 49.8246Z" fill="white"/>
</g>
<defs>
<filter id="filter0_d_1_330" x="-4.02539" y="0.664551" width="144" height="144" filterUnits="userSpaceOnUse" color-interpolation-filters="sRGB">
<feFlood flood-opacity="0" result="BackgroundImageFix"/>
<feColorMatrix in="SourceAlpha" type="matrix" values="0 0 0 0 0 0 0 0 0 0 0 0 0 0 0 0 0 0 127 0" result="hardAlpha"/>
<feMorphology radius="12" operator="erode" in="SourceAlpha" result="effect1_dropShadow_1_330"/>
<feOffset dy="24"/>
<feGaussianBlur stdDeviation="24"/>
<feColorMatrix type="matrix" values="0 0 0 0 0.0625882 0 0 0 0 0.0926346 0 0 0 0 0.15702 0 0 0 0.18 0"/>
<feBlend mode="normal" in2="BackgroundImageFix" result="effect1_dropShadow_1_330"/>
<feBlend mode="normal" in="SourceGraphic" in2="effect1_dropShadow_1_330" result="shape"/>
</filter>
</defs>
</svg>
