<svg width="146" height="153" viewBox="0 0 146 153" fill="none" xmlns="http://www.w3.org/2000/svg">
<g filter="url(#filter0_d_1_267)">
<rect x="31.9746" y="12.6646" width="78" height="80" rx="39" fill="#1130FB"/>
<path d="M78.4413 43.7447L70.908 39.6913C70.108 39.2647 69.1613 39.2647 68.3613 39.6913L60.8413 43.7447C60.2947 44.0513 59.948 44.638 59.948 45.278C59.948 45.9313 60.2813 46.518 60.8413 46.8113L68.3747 50.8647C68.7747 51.078 69.2147 51.1847 69.6413 51.1847C70.068 51.1847 70.5213 51.078 70.908 50.8647L78.4413 46.8113C78.988 46.518 79.3347 45.9313 79.3347 45.278C79.3347 44.638 78.988 44.0513 78.4413 43.7447Z" fill="white"/>
<path d="M67.1347 52.278L60.1347 48.7847C59.588 48.5047 58.9747 48.5447 58.4547 48.8513C57.948 49.1713 57.6414 49.718 57.6414 50.318V56.9313C57.6414 58.078 58.2814 59.1047 59.308 59.6247L66.308 63.118C66.548 63.238 66.8147 63.3047 67.0814 63.3047C67.388 63.3047 67.708 63.2113 67.988 63.0513C68.4947 62.7313 68.8014 62.1847 68.8014 61.5847V54.9713C68.788 53.8247 68.148 52.798 67.1347 52.278Z" fill="white"/>
<path d="M81.6413 50.318V53.598C81.0013 53.4113 80.3213 53.3313 79.6413 53.3313C77.828 53.3313 76.0546 53.958 74.6546 55.078C72.7346 56.5847 71.6413 58.8647 71.6413 61.3313C71.6413 61.9847 71.7213 62.638 71.8946 63.2647C71.6946 63.238 71.4946 63.158 71.308 63.038C70.8013 62.7313 70.4946 62.1847 70.4946 61.5847V54.9713C70.4946 53.8247 71.1346 52.798 72.148 52.278L79.148 48.7847C79.6946 48.5047 80.308 48.5447 80.828 48.8513C81.3346 49.1713 81.6413 49.718 81.6413 50.318Z" fill="white"/>
<path d="M83.8812 57.0912C82.6946 55.9045 81.1212 55.3045 79.5612 55.3312C78.0546 55.3445 76.5479 55.9445 75.4012 57.0912C74.6012 57.8778 74.0812 58.8645 73.8279 59.8912C73.6812 60.4512 73.6279 61.0245 73.6679 61.5978V61.6645C73.6679 61.7578 73.6812 61.8378 73.6946 61.9445C73.6946 61.9445 73.6946 61.9445 73.7079 61.9578V61.9978C73.8279 63.3045 74.3879 64.5712 75.4012 65.5712C76.9479 67.1178 79.1212 67.6378 81.0812 67.1445C81.6679 66.9978 82.2412 66.7578 82.7746 66.4378C83.1746 66.2112 83.5479 65.9178 83.8812 65.5712C84.8812 64.5712 85.4546 63.3045 85.5746 61.9845C85.5879 61.9845 85.5879 61.9578 85.5879 61.9445C85.6146 61.8512 85.6146 61.7445 85.6146 61.6512C85.6146 61.6378 85.6279 61.6112 85.6279 61.5845C85.7079 59.9712 85.1212 58.3178 83.8812 57.0912ZM81.9479 63.6112C81.5612 63.9978 80.9346 63.9978 80.5346 63.6112L79.6546 62.7312L78.7479 63.6378C78.3479 64.0378 77.7212 64.0378 77.3346 63.6378C76.9346 63.2512 76.9346 62.6245 77.3346 62.2245L78.2412 61.3178L77.3612 60.4378C76.9746 60.0378 76.9746 59.4112 77.3612 59.0245C77.7612 58.6245 78.3879 58.6245 78.7879 59.0245L79.6546 59.9045L80.4946 59.0512C80.8946 58.6645 81.5212 58.6645 81.9212 59.0512C82.3079 59.4512 82.3079 60.0778 81.9212 60.4778L81.0679 61.3178L81.9479 62.1845C82.3479 62.5845 82.3479 63.2112 81.9479 63.6112Z" fill="white"/>
</g>
<defs>
<filter id="filter0_d_1_267" x="-4.02539" y="0.664551" width="150" height="152" filterUnits="userSpaceOnUse" color-interpolation-filters="sRGB">
<feFlood flood-opacity="0" result="BackgroundImageFix"/>
<feColorMatrix in="SourceAlpha" type="matrix" values="0 0 0 0 0 0 0 0 0 0 0 0 0 0 0 0 0 0 127 0" result="hardAlpha"/>
<feMorphology radius="12" operator="erode" in="SourceAlpha" result="effect1_dropShadow_1_267"/>
<feOffset dy="24"/>
<feGaussianBlur stdDeviation="24"/>
<feColorMatrix type="matrix" values="0 0 0 0 0.0625882 0 0 0 0 0.0926346 0 0 0 0 0.15702 0 0 0 0.18 0"/>
<feBlend mode="normal" in2="BackgroundImageFix" result="effect1_dropShadow_1_267"/>
<feBlend mode="normal" in="SourceGraphic" in2="effect1_dropShadow_1_267" result="shape"/>
</filter>
</defs>
</svg>
