<svg width="21" height="21" viewBox="0 0 21 21" fill="none" xmlns="http://www.w3.org/2000/svg">
<g clip-path="url(#clip0_1_769)">
<path d="M14.9063 0.228717C15.9213 0.275384 16.6229 0.424551 17.2713 0.676217C17.886 0.90606 18.4425 1.26854 18.9013 1.73788C19.3706 2.19662 19.7331 2.75315 19.9629 3.36788C20.2146 4.01705 20.3638 4.71788 20.4104 5.73288C20.4679 6.99122 20.4746 7.43455 20.4746 10.1646C20.4746 12.8946 20.4679 13.3379 20.4104 14.5962C20.3638 15.6112 20.2146 16.3129 19.9629 16.962C19.733 17.5765 19.3705 18.1327 18.9013 18.5912C18.4426 19.0606 17.886 19.4231 17.2713 19.6529C16.6221 19.9046 15.9213 20.0537 14.9063 20.1004C13.6479 20.1579 13.2054 20.1646 10.4746 20.1646C7.74378 20.1646 7.30044 20.1579 6.04294 20.1004C5.02794 20.0537 4.32628 19.9046 3.67711 19.6529C3.06266 19.423 2.50642 19.0605 2.04794 18.5912C1.5786 18.1325 1.21612 17.5759 0.986276 16.9612C0.734609 16.312 0.585443 15.6112 0.538776 14.5962C0.481276 13.3396 0.474609 12.8962 0.474609 10.1646C0.474609 7.43372 0.481276 6.98955 0.538776 5.73288C0.585443 4.71788 0.734609 4.01622 0.986276 3.36788C1.21612 2.75315 1.5786 2.19662 2.04794 1.73788C2.50644 1.26865 3.06268 0.906168 3.67711 0.676217C4.32711 0.424551 5.02794 0.275384 6.04294 0.228717C7.29961 0.171217 7.74294 0.164551 10.4746 0.164551C13.2054 0.164551 13.6496 0.171217 14.9063 0.228717ZM10.4746 2.38705C7.77461 2.38705 7.36128 2.39288 6.14378 2.44872C5.37128 2.48372 4.90794 2.58205 4.48211 2.74788C4.15526 2.8664 3.85992 3.05826 3.61878 3.30872C3.36779 3.54942 3.17584 3.84489 3.05794 4.17205C2.89294 4.59705 2.79378 5.06122 2.75878 5.83372C2.70294 7.05122 2.69711 7.46455 2.69711 10.1646C2.69711 12.8646 2.70294 13.2779 2.75878 14.4954C2.79378 15.2679 2.89211 15.7312 3.05794 16.1562C3.19961 16.5196 3.34961 16.7504 3.61878 17.0204C3.88878 17.2904 4.11961 17.4404 4.48211 17.5812C4.90711 17.7462 5.37128 17.8454 6.14378 17.8804C7.36211 17.9362 7.77544 17.9421 10.4746 17.9421C13.1746 17.9421 13.5871 17.9362 14.8054 17.8804C15.5779 17.8454 16.0413 17.747 16.4671 17.5812C16.794 17.4627 17.0893 17.2708 17.3304 17.0204C17.6004 16.7504 17.7504 16.5196 17.8913 16.1571C18.0563 15.732 18.1554 15.2679 18.1904 14.4954C18.2463 13.2771 18.2521 12.8637 18.2521 10.1646C18.2521 7.46538 18.2463 7.05205 18.1904 5.83372C18.1554 5.06122 18.0571 4.59788 17.8913 4.17288C17.7734 3.84545 17.5815 3.5497 17.3304 3.30872C17.0895 3.05764 16.7937 2.8657 16.4663 2.74788C16.0413 2.58288 15.5771 2.48372 14.8046 2.44872C13.5871 2.39288 13.1738 2.38705 10.4738 2.38705H10.4746ZM10.4746 15.3496C9.09946 15.3496 7.78064 14.8033 6.80826 13.8309C5.83588 12.8585 5.28961 11.5397 5.28961 10.1646C5.28961 8.7894 5.83588 7.47058 6.80826 6.4982C7.78064 5.52583 9.09946 4.97955 10.4746 4.97955C11.8498 4.97955 13.1686 5.52583 14.141 6.4982C15.1133 7.47058 15.6596 8.7894 15.6596 10.1646C15.6596 11.5397 15.1133 12.8585 14.141 13.8309C13.1686 14.8033 11.8498 15.3496 10.4746 15.3496ZM10.4746 13.1279C11.2605 13.1279 12.0143 12.8157 12.57 12.2599C13.1257 11.7042 13.4379 10.9505 13.4379 10.1646C13.4379 9.37863 13.1257 8.62489 12.57 8.06916C12.0143 7.51342 11.2605 7.20122 10.4746 7.20122C9.68868 7.20122 8.93495 7.51342 8.37922 8.06916C7.82348 8.62489 7.51128 9.37863 7.51128 10.1646C7.51128 10.9505 7.82348 11.7042 8.37922 12.2599C8.93495 12.8157 9.68868 13.1279 10.4746 13.1279ZM15.6596 6.09038C15.3649 6.09038 15.0822 5.97331 14.8738 5.76491C14.6654 5.55651 14.5484 5.27386 14.5484 4.97913C14.5484 4.68441 14.6654 4.40176 14.8738 4.19336C15.0822 3.98496 15.3649 3.86788 15.6596 3.86788C15.9543 3.86788 16.237 3.98496 16.4454 4.19336C16.6538 4.40176 16.7709 4.68441 16.7709 4.97913C16.7709 5.27386 16.6538 5.55651 16.4454 5.76491C16.237 5.97331 15.9543 6.09038 15.6596 6.09038Z" fill="white"/>
</g>
<defs>
<clipPath id="clip0_1_769">
<rect width="20" height="20" fill="white" transform="translate(0.474609 0.164551)"/>
</clipPath>
</defs>
</svg>
