<svg width="21" height="21" viewBox="0 0 21 21" fill="none" xmlns="http://www.w3.org/2000/svg">
<g clip-path="url(#clip0_1_765)">
<path d="M18.5996 0.164551H2.34961C1.31836 0.164551 0.474609 1.0083 0.474609 2.03955V18.2896C0.474609 19.3208 1.31836 20.1646 2.34961 20.1646H18.5996C19.6309 20.1646 20.4746 19.3208 20.4746 18.2896V2.03955C20.4746 1.0083 19.6309 0.164551 18.5996 0.164551ZM7.97461 16.4146H5.47461V7.66455H7.97461V16.4146ZM6.72461 6.41455C6.39309 6.41455 6.07515 6.28285 5.84073 6.04843C5.60631 5.81401 5.47461 5.49607 5.47461 5.16455C5.47461 4.83303 5.60631 4.51509 5.84073 4.28067C6.07515 4.04625 6.39309 3.91455 6.72461 3.91455C7.05613 3.91455 7.37407 4.04625 7.60849 4.28067C7.84291 4.51509 7.97461 4.83303 7.97461 5.16455C7.97461 5.49607 7.84291 5.81401 7.60849 6.04843C7.37407 6.28285 7.05613 6.41455 6.72461 6.41455ZM16.7246 16.4146H14.2246V11.4146C14.2246 11.083 14.0929 10.7651 13.8585 10.5307C13.6241 10.2962 13.3061 10.1646 12.9746 10.1646C12.6431 10.1646 12.3251 10.2962 12.0907 10.5307C11.8563 10.7651 11.7246 11.083 11.7246 11.4146V16.4146H9.22461V7.66455H11.7246V9.2158C12.2396 8.5083 13.0296 7.66455 13.9121 7.66455C15.4671 7.66455 16.7246 9.0633 16.7246 10.7896V16.4146Z" fill="white"/>
</g>
<defs>
<clipPath id="clip0_1_765">
<rect width="20" height="20" fill="white" transform="translate(0.474609 0.164551)"/>
</clipPath>
</defs>
</svg>
