<svg width="104" height="40" viewBox="0 0 104 40" fill="none" xmlns="http://www.w3.org/2000/svg">
<g clip-path="url(#clip0_1_781)">
<path d="M39.7063 23.0346V20.3921H45.3044C46.1604 20.3921 46.8283 20.12 47.3076 19.576C47.7866 19.032 48.0264 18.3148 48.0264 17.4281C48.0264 16.5414 47.7866 15.8101 47.3076 15.2802C46.8283 14.7502 46.1604 14.4853 45.3044 14.4853H37.9239V27.3782H35.5078V11.7527H45.3044C46.1098 11.7527 46.8283 11.8852 47.4619 12.1501C48.094 12.4151 48.6282 12.7878 49.0632 13.2682C49.4982 13.7487 49.8306 14.3316 50.0608 15.0187C50.2909 15.7058 50.406 16.4795 50.406 17.3398C50.406 18.2 50.2909 18.9542 50.0608 19.6502C49.8306 20.3444 49.4982 20.9432 49.0632 21.4449C48.6282 21.9465 48.0956 22.3369 47.4619 22.616C46.8302 22.8951 46.1098 23.0346 45.3044 23.0346H39.7063Z" fill="white"/>
<path d="M58.3347 27.3746V21.4431L50.9355 11.7527H54.2135L59.6397 18.9507L65.0834 11.7527H68.1896L60.7698 21.4431V27.3746H58.3347Z" fill="white"/>
<path d="M76.5848 27.3746V14.4817H70.1729V11.7527H85.4405V14.4817H79.0196V27.3746H76.5848Z" fill="white"/>
<path d="M100.673 11.7529H103.099V27.3749H100.673V11.7529Z" fill="white"/>
<path d="M90.2077 27.3749V20.6131H99.2315V18.1949H90.2077V11.7529H87.7822V27.3749H90.2077Z" fill="white"/>
<path d="M18.0846 15.8373C18.0846 17.9941 16.5243 19.7428 14.6 19.7428V23.6483C18.4487 23.6483 21.5692 20.1509 21.5692 15.8373C21.5692 11.5238 18.4487 8.02637 14.6 8.02637C13.3313 8.02637 12.1399 8.40617 11.1154 9.07208C9.03196 10.4216 7.63086 12.9458 7.63086 15.8373V35.3649L10.764 38.8763L11.1154 39.2703V15.8373C11.1154 13.6806 12.6757 11.9319 14.6 11.9319C16.5243 11.9319 18.0846 13.6806 18.0846 15.8373Z" fill="white"/>
<path d="M14.6 0.216064C12.061 0.216064 9.68121 0.977377 7.63078 2.30747C6.31797 3.1571 5.14226 4.2399 4.1462 5.50641C1.9776 8.26018 0.661621 11.8778 0.661621 15.838V27.5545L4.1462 31.4599V15.838C4.1462 12.3688 5.49214 9.25115 7.63078 7.10498C8.63629 6.09815 9.81674 5.30326 11.1154 4.79102C12.2044 4.35647 13.3786 4.12155 14.6 4.12155C20.3729 4.12155 25.0537 9.36772 25.0537 15.838C25.0537 22.3083 20.3729 27.5545 14.6 27.5545V31.4599C22.2988 31.4599 28.5383 24.4651 28.5383 15.838C28.5383 7.21095 22.2988 0.216064 14.6 0.216064Z" fill="white"/>
</g>
<defs>
<clipPath id="clip0_1_781">
<rect width="102.437" height="39.0542" fill="white" transform="translate(0.661621 0.216064)"/>
</clipPath>
</defs>
</svg>
