<svg width="25" height="25" viewBox="0 0 25 25" fill="none" xmlns="http://www.w3.org/2000/svg">
<path d="M21.7519 16.6502C21.5919 16.3802 21.1419 15.9602 20.0219 16.1602C19.4019 16.2702 18.7719 16.3202 18.1419 16.2902C15.8119 16.1902 13.7019 15.1202 12.2319 13.4702C10.9319 12.0202 10.1319 10.1302 10.1219 8.09021C10.1219 6.95021 10.3419 5.85021 10.7919 4.81021C11.2319 3.80021 10.9219 3.27021 10.7019 3.05021C10.4719 2.82021 9.93188 2.50021 8.87188 2.94021C4.78188 4.66021 2.25188 8.76021 2.55188 13.1502C2.85188 17.2802 5.75188 20.8102 9.59188 22.1402C10.5119 22.4602 11.4819 22.6502 12.4819 22.6902C12.6419 22.7002 12.8019 22.7102 12.9619 22.7102C16.3119 22.7102 19.4519 21.1302 21.4319 18.4402C22.1019 17.5102 21.9219 16.9202 21.7519 16.6502Z" fill="white"/>
</svg>
