<svg width="25" height="25" viewBox="0 0 25 25" fill="none" xmlns="http://www.w3.org/2000/svg">
<path d="M12.2217 19.2202C15.8115 19.2202 18.7217 16.3101 18.7217 12.7202C18.7217 9.13036 15.8115 6.22021 12.2217 6.22021C8.63183 6.22021 5.72168 9.13036 5.72168 12.7202C5.72168 16.3101 8.63183 19.2202 12.2217 19.2202Z" stroke="#F3F4F6" stroke-width="1.5" stroke-linecap="round" stroke-linejoin="round"/>
<path d="M19.3617 19.8602L19.2317 19.7302M19.2317 5.71021L19.3617 5.58021L19.2317 5.71021ZM5.08168 19.8602L5.21168 19.7302L5.08168 19.8602ZM12.2217 2.80021V2.72021V2.80021ZM12.2217 22.7202V22.6402V22.7202ZM2.30168 12.7202H2.22168H2.30168ZM22.2217 12.7202H22.1417H22.2217ZM5.21168 5.71021L5.08168 5.58021L5.21168 5.71021Z" stroke="#F3F4F6" stroke-width="2" stroke-linecap="round" stroke-linejoin="round"/>
</svg>
