<svg width="16" height="16" viewBox="0 0 16 16" fill="none" xmlns="http://www.w3.org/2000/svg">
<path d="M6.8138 0.832441C6.3049 0.667843 5.75401 0.689916 5.2599 0.894704C4.7658 1.09949 4.36081 1.4736 4.11755 1.94994L3.51305 3.13194C3.44122 3.27266 3.32678 3.38711 3.18605 3.45894L2.0033 4.06344C1.52696 4.3067 1.15286 4.71169 0.948067 5.20579C0.743279 5.69989 0.721206 6.25079 0.885804 6.75969L1.2953 8.02344C1.34392 8.17361 1.34392 8.33528 1.2953 8.48544L0.886554 9.74919C0.721956 10.2581 0.744029 10.809 0.948817 11.3031C1.15361 11.7972 1.52771 12.2022 2.00405 12.4454L3.18605 13.0499C3.32678 13.1218 3.44122 13.2362 3.51305 13.3769L4.11755 14.5597C4.36081 15.036 4.7658 15.4101 5.2599 15.6149C5.75401 15.8197 6.3049 15.8418 6.8138 15.6772L8.07755 15.2677C8.22772 15.2191 8.38939 15.2191 8.53955 15.2677L9.8033 15.6764C10.3121 15.8411 10.863 15.8191 11.357 15.6145C11.8511 15.4098 12.2562 15.0359 12.4996 14.5597L13.1041 13.3769C13.1759 13.2362 13.2903 13.1218 13.4311 13.0499L14.6138 12.4462C15.0903 12.2029 15.4645 11.7978 15.6693 11.3035C15.8741 10.8093 15.8961 10.2582 15.7313 9.74919L15.3218 8.48544C15.2732 8.33528 15.2732 8.17361 15.3218 8.02344L15.7306 6.75969C15.8952 6.25087 15.8732 5.70005 15.6686 5.20595C15.464 4.71186 15.09 4.30682 14.6138 4.06344L13.4311 3.45894C13.2903 3.38711 13.1759 3.27266 13.1041 3.13194L12.5003 1.94919C12.257 1.47268 11.8519 1.09846 11.3576 0.893661C10.8634 0.688862 10.3123 0.666891 9.8033 0.831691L8.53955 1.24119C8.38939 1.2898 8.22772 1.2898 8.07755 1.24119L6.8138 0.832441ZM4.37855 8.07219L5.43905 7.01169L7.56005 9.13344L11.8028 4.89069L12.8641 5.95119L7.56005 11.2537L4.37855 8.07219Z" fill="#1D9BF0"/>
</svg>
