<svg width="133" height="128" viewBox="0 0 133 128" fill="none" xmlns="http://www.w3.org/2000/svg">
<path d="M52.6237 117.575L28.0776 160.089L3.53447 117.575L28.0776 75.06L52.6237 117.575ZM93.0409 46.9344L68.4978 89.4458L43.9548 46.9344L68.4978 4.41988L93.0409 46.9344ZM108.029 70.8716H106.415L94.883 90.845H70.918L95.4611 48.3305H144.553L131.539 70.8716H108.029ZM134.184 116.178L109.641 73.6639H158.733L183.276 116.178H134.184ZM70.918 3.02374L120.007 3.02682L144.553 45.5351H95.4611L70.918 3.02374ZM30.4977 73.6639H56.1602L67.6921 93.6373H93.3331L80.2574 116.178H55.0439L30.4977 73.6639ZM30.4977 161.485L55.0439 118.971H80.2574L92.1952 139.648L79.59 161.482L30.4977 161.485ZM82.6775 117.575L107.221 75.06L131.767 117.575L107.221 160.089L82.6775 117.575ZM109.641 161.485L134.184 118.971H183.276L158.733 161.482L109.641 161.485ZM186.502 116.178L160.344 70.8716H134.765L148.585 46.9344L121.619 0.231469L67.6921 0.228394L40.7258 46.9344L54.5488 70.8716H27.2719L0.308594 117.575L27.2719 164.28L81.2014 164.277L93.8066 142.44L106.415 164.28L160.344 164.277L187.308 117.575L186.502 116.178Z" fill="#0525FF"/>
</svg>
