<svg width="21" height="15" viewBox="0 0 21 15" fill="none" xmlns="http://www.w3.org/2000/svg">
<path d="M20.2755 3.16439C20.2755 3.16439 20.0805 1.78564 19.4792 1.18064C18.718 0.384395 17.8655 0.379395 17.4755 0.333145C14.6792 0.129395 10.4792 0.129395 10.4792 0.129395H10.4717C10.4717 0.129395 6.27297 0.129395 3.47547 0.333145C3.08422 0.380645 2.23297 0.384395 1.47172 1.18064C0.870469 1.78564 0.679219 3.16439 0.679219 3.16439C0.679219 3.16439 0.480469 4.78189 0.480469 6.40314V7.91939C0.480469 9.53689 0.679219 11.1581 0.679219 11.1581C0.679219 11.1581 0.874219 12.5369 1.47172 13.1431C2.23297 13.9394 3.23297 13.9131 3.67922 13.9981C5.28047 14.1506 10.4805 14.1969 10.4805 14.1969C10.4805 14.1969 14.6842 14.1894 17.4805 13.9894C17.8717 13.9431 18.723 13.9381 19.4842 13.1419C20.0855 12.5369 20.2805 11.1569 20.2805 11.1569C20.2805 11.1569 20.4792 9.53939 20.4792 7.91814V6.40189C20.4755 4.78439 20.2767 3.16314 20.2767 3.16314L20.2755 3.16439ZM8.40797 9.75814V4.13689L13.8105 6.95689L8.40797 9.75814Z" fill="white"/>
</svg>
